<svg xmlns="http://www.w3.org/2000/svg" xmlns:xlink="http://www.w3.org/1999/xlink" aria-hidden="true" data-bbox="-491.16 -220.219 3885.391 4432.307" data-type="ugc" viewBox="0 0 3000 3000"><defs><linearGradient id="a" x1="715.92" x2="3417.85" y1="516.92" y2="4196.15" gradientUnits="userSpaceOnUse"><stop offset=".03" stop-color="#fff"/><stop offset=".1" stop-color="#ffaad3"/><stop offset=".2" stop-color="#fa97eb"/><stop offset=".31" stop-color="#ed38ff"/><stop offset=".49" stop-color="#5b24ca"/><stop offset=".58" stop-color="#9957ff"/><stop offset=".71" stop-color="#302454"/><stop offset=".84" stop-color="#55badd"/><stop offset=".95" stop-color="#3af1fb"/><stop offset="1" stop-color="#fff"/></linearGradient><linearGradient id="c" x1="2614.84" x2="743.75" y1="3125.35" y2="541.46" gradientUnits="userSpaceOnUse"><stop offset=".03" stop-color="#fff"/><stop offset=".12" stop-color="#ffaad3"/><stop offset=".2" stop-color="#fa97eb"/><stop offset=".31" stop-color="#ed38ff"/><stop offset=".49" stop-color="#5b24ca"/><stop offset=".58" stop-color="#9957ff"/><stop offset=".71" stop-color="#302454"/><stop offset=".84" stop-color="#55badd"/><stop offset=".95" stop-color="#3af1fb"/><stop offset=".99" stop-color="#fff"/></linearGradient><linearGradient xlink:href="#a" id="d" x1="233.83" x2="2766.17" y1="1500" y2="1500"/><linearGradient id="e" x1="2769.28" x2="469.76" y1="1481.35" y2="1542.67" gradientUnits="userSpaceOnUse"><stop offset=".03" stop-color="#fff"/><stop offset=".12" stop-color="#ffaad3"/><stop offset=".2" stop-color="#fa97eb"/><stop offset=".31" stop-color="#ed38ff"/><stop offset=".49" stop-color="#5b24ca"/><stop offset=".58" stop-color="#9957ff"/><stop offset=".71" stop-color="#302454"/><stop offset=".84" stop-color="#55badd"/><stop offset=".95" stop-color="#3af1fb"/><stop offset=".99" stop-color="#fff"/></linearGradient><clipPath id="b"><path d="m2121.2 2426.91-417.45 5.23V598.86l672.61-473.12h-931.3L490.75 801.22l-2.87 562.59L1208.4 867.4v1564.74l-709.02 442.12h2185.2V2020.5l-563.38 406.41z"/></clipPath><clipPath id="f"><path d="m2121.2 2426.91-417.45 5.23V598.86l672.61-473.12h-931.3L490.75 801.22l-2.87 562.59L1208.4 867.4v1564.74l-709.02 442.12h2185.2V2020.5l-563.38 406.41z" clip-path="url(#b)"/></clipPath></defs><g style="isolation:isolate"><path fill="url(#a)" d="m2121.2 2426.91-417.45 5.23V598.86l672.61-473.12h-931.3L490.75 801.22l-2.87 562.59L1208.4 867.4v1564.74l-709.02 442.12h2185.2V2020.5l-563.38 406.41z" opacity=".05"/><path fill="url(#c)" d="m2121.2 2426.91-417.45 5.23V598.86l672.61-473.12h-931.3L490.75 801.22l-2.87 562.59L1208.4 867.4v1564.74l-709.02 442.12h2185.2V2020.5l-563.38 406.41z"/><path fill="url(#d)" d="m2380.7 125.74-672.61 473.12v1833.29l417.45-5.23 563.38-406.41v853.76H503.71l709.02-442.12V867.4l-720.52 496.41 2.87-562.59 954.31-675.48h931.31m244.09-77.25H1424.82l-20.06 14.2-954.3 675.48-32.42 22.94-.2 39.71-2.87 562.59-.76 147.95 121.83-83.94 599.44-412.99v1374.84l-672.64 419.44-229.01 142.8h2532.34V1869.52l-122.44 88.33-543.58 392.13-314.81 3.95V638.97l639.8-450.04L2624.79 48.5Z"/><path fill="url(#e)" d="m2354.4 134.32-650.43 457.52-3.64 2.56v1846.43l8.69-.11 417.45-5.23 2.71-.03 2.2-1.59 549.78-396.6v828.4H534.52l683.57-426.25 4.04-2.52V851.07l-13.45 9.27-706.98 487.08 2.77-541.74 948.47-671.36h901.45m27.12-8.58H1450.2L495.91 801.22l-2.87 562.59 720.52-496.41v1564.74l-709.02 442.12h2185.21V2020.5l-563.38 406.41-417.45 5.23V598.86l672.61-473.12Z"/><g fill="#fff" clip-path="url(#f)" opacity=".94"><path d="m-200.96 2697.54-54.75-10.67L2377.86 857.09l54.75 10.66-2633.57 1829.79zM-183.91 2602.85l-54.75-10.66L2394.91 762.4l54.75 10.67-2633.57 1829.78z" opacity=".25" style="mix-blend-mode:overlay"/><path d="M861.61-889.95v3206.83h-45.83V-889.95h45.83z" opacity=".25" style="mix-blend-mode:overlay" transform="rotate(-124.79 838.705 713.457)"/><path d="M1612 1623.66v3206.83h-154.66V1623.66H1612z" opacity=".25" style="mix-blend-mode:overlay" transform="rotate(55.21 1534.682 3226.99)"/><path d="M2132.82 1588.06v3206.83H1875.2V1588.06h257.62z" opacity=".25" style="mix-blend-mode:overlay" transform="rotate(55.21 2004.004 3191.385)"/><path d="M1023.7-822.55v3206.83h-73.61V-822.55h73.61z" opacity=".25" style="mix-blend-mode:overlay" transform="rotate(55.21 986.882 780.84)"/><path d="M1113.36 550.29v3206.83H807.08V550.29h306.28z" opacity=".25" style="mix-blend-mode:overlay" transform="rotate(55.21 960.222 2153.65)"/></g></g></svg>